<svg xmlns="http://www.w3.org/2000/svg" viewBox="0 0 2048 1200"><defs>
      <linearGradient id="body" x1="0" y1="0" x2="1" y2="1"><stop stop-color="#32343a"/><stop offset=".45" stop-color="#111216"/><stop offset="1" stop-color="#050507"/></linearGradient>
      <linearGradient id="metal" x1="0" y1="0" x2="1" y2="1"><stop stop-color="#737781"/><stop offset=".22" stop-color="#24262b"/><stop offset=".7" stop-color="#090a0c"/><stop offset="1" stop-color="#555963"/></linearGradient>
      <linearGradient id="rgb" x1="0" y1="0" x2="1" y2="0"><stop stop-color="#ff1717"/><stop offset=".22" stop-color="#ff7a18"/><stop offset=".43" stop-color="#ffe44d"/><stop offset=".62" stop-color="#28f0ff"/><stop offset=".82" stop-color="#8e43ff"/><stop offset="1" stop-color="#ff1717"/></linearGradient>
      <filter id="glow"><feGaussianBlur stdDeviation="12" result="b"/><feMerge><feMergeNode in="b"/><feMergeNode in="SourceGraphic"/></feMerge></filter>
      <filter id="soft"><feGaussianBlur stdDeviation="28"/></filter>
      <pattern id="grid" width="64" height="64" patternUnits="userSpaceOnUse"><path d="M64 0H0V64" fill="none" stroke="#ffffff" stroke-opacity=".025"/></pattern>
      <radialGradient id="studio"><stop stop-color="#ff2018" stop-opacity=".18"/><stop offset="1" stop-color="#ff2018" stop-opacity="0"/></radialGradient>
    </defs><rect width="2048" height="1200" fill="#08090b"/><rect width="2048" height="1200" fill="url(#grid)"/><ellipse cx="1024" cy="760" rx="760" ry="300" fill="none"/>
    <path d="M704 620 V510 C704 210 1344 210 1344 510 V620" fill="none" stroke="#1b1d22" stroke-width="74" stroke-linecap="round"/><path d="M729 620 V520 C729 270 1319 270 1319 520 V620" fill="none" stroke="#646a73" stroke-opacity=".35" stroke-width="10"/>
    <g><rect x="364" y="560" width="220" height="300" rx="72" fill="url(#body)" stroke="#70757e" stroke-width="6"/><rect x="1464" y="560" width="220" height="300" rx="72" fill="url(#body)" stroke="#70757e" stroke-width="6"/><circle cx="474.0" cy="710" r="92" fill="#0b0c0f" stroke="#3c414a" stroke-width="8"/><circle cx="1574.0" cy="710" r="92" fill="#0b0c0f" stroke="#3c414a" stroke-width="8"/><path d="M419.0 710 A55 55 0 1 0 529.0 710" fill="none" stroke="url(#rgb)" stroke-width="12" filter="url(#glow)"/><path d="M1519.0 710 A55 55 0 1 0 1629.0 710" fill="none" stroke="url(#rgb)" stroke-width="12" filter="url(#glow)"/></g><rect x="260" y="1045" width="1528" height="8" rx="4" fill="url(#rgb)" opacity=".95" filter="url(#glow)"/><rect x="260" y="1048" width="1528" height="3" rx="2" fill="url(#rgb)"/></svg>